<svg width="120" height="40" viewBox="0 0 120 40" fill="none" xmlns="http://www.w3.org/2000/svg">
  <!-- Stylized flask/test tube icon -->
  <path d="M15 5C15 3.34315 16.3431 2 18 2H22C23.6569 2 25 3.34315 25 5V10C25 10 25 12 28 16C31 20 31 26 31 26C31 31.5228 26.5228 36 21 36C15.4772 36 11 31.5228 11 26C11 26 11 20 14 16C17 12 15 10 15 10V5Z" fill="#16a34a" fill-opacity="0.8"/>
  <path d="M15 5C15 3.34315 16.3431 2 18 2H22C23.6569 2 25 3.34315 25 5V10C25 10 25 12 28 16C31 20 31 26 31 26C31 31.5228 26.5228 36 21 36C15.4772 36 11 31.5228 11 26C11 26 11 20 14 16C17 12 15 10 15 10V5Z" stroke="#15803d" stroke-width="1.5"/>
  
  <!-- Stylized bubble element -->
  <circle cx="18" cy="24" r="2" fill="#ffffff"/>
  <circle cx="24" cy="22" r="1.5" fill="#ffffff"/>
  <circle cx="21" cy="28" r="1" fill="#ffffff"/>

  <!-- GasX text -->
  <path d="M40 15H44.5C47.5 15 49 17 49 19C49 21 47.5 23 44.5 23H43V27H40V15ZM44.5 20.5C45.5 20.5 46 20 46 19C46 18 45.5 17.5 44.5 17.5H43V20.5H44.5Z" fill="#15803d"/>
  <path d="M51 20.5L51 15H54V20.5C54 22 55 22.5 56 22.5C57 22.5 58 22 58 20.5V15H61V20.5C61 24 58.5 26 56 26C53.5 26 51 24 51 20.5Z" fill="#15803d"/>
  <path d="M62 15H65L68 21L71 15H74L69.5 24L74 27H71L68 24L65 27H62L66.5 24L62 15Z" fill="#15803d"/>

  <!-- InVivo text -->
  <path d="M76 18.5H79V27H76V18.5Z" fill="#15803d"/>
  <circle cx="77.5" cy="16" r="1.5" fill="#15803d"/>
  <path d="M81 18.5H84V19.5C84.5 18.8333 85.5 18 87 18C89.5 18 91 19.5 91 22V27H88V22.5C88 21.5 87.5 20.5 86 20.5C84.5 20.5 84 21.5 84 22.5V27H81V18.5Z" fill="#15803d"/>
  <path d="M93 22.5L98 18.5H101.5L96.5 22.5L102 27H98.5L93 22.5Z" fill="#15803d"/>
  <path d="M102 18.5H105V19.5C105.5 18.8333 106.3 18 107.5 18C107.8 18 108 18 108.5 18.2V21C108 20.8 107.5 20.7 107 20.7C105.5 20.7 105 21.5 105 22.5V27H102V18.5Z" fill="#15803d"/>
  <path d="M110 18.5H113V27H110V18.5Z" fill="#15803d"/>
  <circle cx="111.5" cy="16" r="1.5" fill="#15803d"/>
  <path d="M114 22.8C114 19.9333 116 18 118.5 18C121 18 123 19.9333 123 22.8C123 25.6667 121 27.6 118.5 27.6C116 27.6 114 25.6667 114 22.8ZM120 22.8C120 21.3333 119.3 20.4 118.5 20.4C117.7 20.4 117 21.3333 117 22.8C117 24.2667 117.7 25.2 118.5 25.2C119.3 25.2 120 24.2667 120 22.8Z" fill="#15803d"/>
</svg>